<?xml version="1.0" encoding="utf-8"?>
<!-- Generator: Adobe Illustrator 13.0.0, SVG Export Plug-In . SVG Version: 6.00 Build 14948)  -->
<svg version="1.2" baseProfile="tiny" xmlns="http://www.w3.org/2000/svg" xmlns:xlink="http://www.w3.org/1999/xlink" x="0px"
	 y="0px" width="48px" height="48px" viewBox="0 0 48 48" xml:space="preserve">
<g id="svg2393" xmlns:svg="http://www.w3.org/2000/svg">
	<path id="path3175" fill="#828385" stroke="#3D3E40" d="M47.335,23.745c0,13.119-10.604,23.755-23.685,23.755
		c-13.081,0-23.685-10.637-23.685-23.755c0-13.12,10.604-23.756,23.685-23.756C36.731-0.012,47.335,10.625,47.335,23.745z"/>
	<path id="path3177" fill="#14171A" stroke="#222224" d="M46.202,24.736c0,12.18-10.162,22.053-22.694,22.053
		c-12.533,0-22.692-9.873-22.692-22.053c0-12.18,10.16-22.053,22.692-22.053C36.04,2.683,46.202,12.556,46.202,24.736z"/>
	<path id="path3828" fill="#DCDCDD" d="M4.22,11.476c8.884-13.215,28.988-13.349,38.294-0.992
		C33.235,2.409,17.621-1.329,4.22,11.476z"/>
	<path id="path3976" fill="#222124" d="M1.5,22.025c8.786,5.424,36.738,8.387,44.991,1.053C39.775-5.18,4.729,0.379,1.5,22.025z"/>
</g>
<g id="Warstwa_2">
	<g>
		<path fill="none" d="M36.23,18.34c0,3.422-2.775,6.197-6.194,6.197c-6.973,0-6.198,0.736-6.198-6.197
			c0-3.424,2.773-6.198,6.198-6.198C33.455,12.142,36.23,14.916,36.23,18.34z"/>
		<path fill="#FFFFFF" d="M34.83,18.34c-0.211,3.931-3.344,4.774-6.662,4.811c-0.85,0.009-1.698,0.025-2.546-0.042
			c-0.461-0.036-0.344-0.119-0.388-0.699c-0.199-2.641-0.347-5.697,1.639-7.681C29.919,11.682,34.629,14.6,34.83,18.34
			c0.097,1.796,2.897,1.805,2.801,0c-0.27-4.998-4.397-8.203-9.297-7.405c-5.511,0.897-5.986,6.705-5.915,11.112
			c0.056,3.408,2.229,3.928,5.22,3.909c2.456-0.016,4.638-0.011,6.761-1.406c2.104-1.383,3.1-3.782,3.23-6.21
			C37.728,16.535,34.927,16.544,34.83,18.34z"/>
	</g>
	<g>
		<path fill="none" d="M11.521,30.741c0-3.423,2.775-6.197,6.2-6.197c6.89,0,6.197-0.45,6.197,6.197
			c0,3.424-2.777,6.198-6.197,6.198C14.296,36.939,11.521,34.165,11.521,30.741z"/>
		<path fill="#FFFFFF" d="M12.92,30.741c0.212-3.945,3.373-4.791,6.704-4.804c1.56-0.005,2.809-0.448,2.898,1.125
			c0.145,2.572,0.302,5.348-1.641,7.29C17.835,37.398,13.122,34.482,12.92,30.741c-0.097-1.796-2.897-1.805-2.8,0
			c0.269,4.998,4.4,8.204,9.3,7.405c5.475-0.893,6.022-6.684,5.901-11.084c-0.091-3.292-2.254-3.898-5.162-3.924
			c-2.467-0.022-4.68-0.005-6.808,1.392c-2.105,1.383-3.101,3.783-3.231,6.211C10.023,32.546,12.824,32.537,12.92,30.741z"/>
	</g>
	<g>
		<path fill="#FFFFFF" d="M24.257,24.59c4.597,4.596,9.142,9.138,13.745,13.745"/>
		<g>
			<path fill="none" d="M24.257,24.59c4.597,4.596,9.142,9.138,13.745,13.745"/>
			<path fill="#FFFFFF" d="M23.267,25.58c4.583,4.581,9.165,9.161,13.745,13.745c1.277,1.278,3.258-0.702,1.98-1.98
				c-4.58-4.583-9.163-9.164-13.745-13.745C23.969,22.322,21.989,24.302,23.267,25.58L23.267,25.58z"/>
		</g>
	</g>
	<g>
		<path fill="none" d="M10.666,10.998c3.836,3.783,7.669,7.568,11.561,11.404"/>
		<path fill="#FFFFFF" d="M9.676,11.988c3.854,3.801,7.706,7.604,11.561,11.404c1.286,1.268,3.267-0.71,1.979-1.979
			c-3.854-3.801-7.707-7.604-11.561-11.404C10.369,8.74,8.388,10.719,9.676,11.988L9.676,11.988z"/>
	</g>
</g>
</svg>
